<svg width="38" height="39" viewBox="0 0 38 39" fill="none" xmlns="http://www.w3.org/2000/svg">
<g filter="url(#filter0_ddii_2002_2079)">
<path d="M4 13.8C4 9.31958 4 7.07937 4.87195 5.36808C5.63893 3.86278 6.86278 2.63893 8.36808 1.87195C10.0794 1 12.3196 1 16.8 1H21.2C25.6804 1 27.9206 1 29.6319 1.87195C31.1372 2.63893 32.3611 3.86278 33.1281 5.36808C34 7.07937 34 9.31958 34 13.8V18.2C34 22.6804 34 24.9206 33.1281 26.6319C32.3611 28.1372 31.1372 29.3611 29.6319 30.1281C27.9206 31 25.6804 31 21.2 31H16.8C12.3196 31 10.0794 31 8.36808 30.1281C6.86278 29.3611 5.63893 28.1372 4.87195 26.6319C4 24.9206 4 22.6804 4 18.2V13.8Z" fill="#09090B"/>
<path fill-rule="evenodd" clip-rule="evenodd" d="M17.4997 7H14.5V10H17.4997H17.4999H20.4997V7H17.4999H17.4997ZM19 13H14.5V16L18.9998 16V19H23.4998V16L19 16V13ZM23.5 22H26.4999V19H23.4999V22H20.5V25H23.5V22ZM17.4999 22H20.4997V25H17.4999H17.4997H14.5V22H11.5V19H14.5V22H17.4997H17.4999ZM11.5 10H14.5V13H11.5V10ZM26.4999 10H23.4999V13H26.4999V10ZM20.5 7H23.5V10H20.5V7Z" fill="white"/>
<path fill-rule="evenodd" clip-rule="evenodd" d="M17.4997 7H14.5V10H17.4997H17.4999H20.4997V7H17.4999H17.4997ZM19 13H14.5V16L18.9998 16V19H23.4998V16L19 16V13ZM23.5 22H26.4999V19H23.4999V22H20.5V25H23.5V22ZM17.4999 22H20.4997V25H17.4999H17.4997H14.5V22H11.5V19H14.5V22H17.4997H17.4999ZM11.5 10H14.5V13H11.5V10ZM26.4999 10H23.4999V13H26.4999V10ZM20.5 7H23.5V10H20.5V7Z" fill="#FAFAFA"/>
</g>
<defs>
<filter id="filter0_ddii_2002_2079" x="2.38419e-07" y="5.96046e-08" width="38" height="39" filterUnits="userSpaceOnUse" color-interpolation-filters="sRGB">
<feFlood flood-opacity="0" result="BackgroundImageFix"/>
<feColorMatrix in="SourceAlpha" type="matrix" values="0 0 0 0 0 0 0 0 0 0 0 0 0 0 0 0 0 0 127 0" result="hardAlpha"/>
<feOffset dy="4"/>
<feGaussianBlur stdDeviation="2"/>
<feComposite in2="hardAlpha" operator="out"/>
<feColorMatrix type="matrix" values="0 0 0 0 0.0313726 0 0 0 0 0.0313726 0 0 0 0 0.0313726 0 0 0 0.08 0"/>
<feBlend mode="normal" in2="BackgroundImageFix" result="effect1_dropShadow_2002_2079"/>
<feColorMatrix in="SourceAlpha" type="matrix" values="0 0 0 0 0 0 0 0 0 0 0 0 0 0 0 0 0 0 127 0" result="hardAlpha"/>
<feOffset dy="1"/>
<feGaussianBlur stdDeviation="1"/>
<feComposite in2="hardAlpha" operator="out"/>
<feColorMatrix type="matrix" values="0 0 0 0 0.0313726 0 0 0 0 0.0313726 0 0 0 0 0.0313726 0 0 0 0.2 0"/>
<feBlend mode="normal" in2="effect1_dropShadow_2002_2079" result="effect2_dropShadow_2002_2079"/>
<feBlend mode="normal" in="SourceGraphic" in2="effect2_dropShadow_2002_2079" result="shape"/>
<feColorMatrix in="SourceAlpha" type="matrix" values="0 0 0 0 0 0 0 0 0 0 0 0 0 0 0 0 0 0 127 0" result="hardAlpha"/>
<feOffset dy="4"/>
<feGaussianBlur stdDeviation="2"/>
<feComposite in2="hardAlpha" operator="arithmetic" k2="-1" k3="1"/>
<feColorMatrix type="matrix" values="0 0 0 0 1 0 0 0 0 1 0 0 0 0 1 0 0 0 0.08 0"/>
<feBlend mode="normal" in2="shape" result="effect3_innerShadow_2002_2079"/>
<feColorMatrix in="SourceAlpha" type="matrix" values="0 0 0 0 0 0 0 0 0 0 0 0 0 0 0 0 0 0 127 0" result="hardAlpha"/>
<feOffset dy="1"/>
<feGaussianBlur stdDeviation="0.5"/>
<feComposite in2="hardAlpha" operator="arithmetic" k2="-1" k3="1"/>
<feColorMatrix type="matrix" values="0 0 0 0 1 0 0 0 0 1 0 0 0 0 1 0 0 0 0.15 0"/>
<feBlend mode="normal" in2="effect3_innerShadow_2002_2079" result="effect4_innerShadow_2002_2079"/>
</filter>
</defs>
</svg>
